HIERARCHY
ROOT Hips
{
	OFFSET 0.000000 121.760803 0.000000
	CHANNELS 6 Xposition Yposition Zposition Xrotation Yrotation Zrotation 
	JOINT Spine
	{
		OFFSET 0.072000 7.257294 -0.789700
		CHANNELS 3 Xrotation Yrotation Zrotation
		JOINT Spine1
		{
			OFFSET 0.000000 12.508769 -0.658067
			CHANNELS 3 Xrotation Yrotation Zrotation
			JOINT Spine1_split
			{
				OFFSET 0.000000 12.508769 -0.658067
				CHANNELS 3 Xrotation Yrotation Zrotation
				JOINT Spine2
				{
					OFFSET 0.000000 12.508769 -0.658067
					CHANNELS 3 Xrotation Yrotation Zrotation
					JOINT Neck
					{
						OFFSET 0.000000 14.033295 7.520400
						CHANNELS 3 Xrotation Yrotation Zrotation
						JOINT Head
						{
							OFFSET 0.000000 8.198502 5.703100
							CHANNELS 3 Xrotation Yrotation Zrotation
							JOINT HeadTop_End
							{
								OFFSET 0.000000 17.760803 13.332701
								CHANNELS 3 Xrotation Yrotation Zrotation
								End Site
								{
									OFFSET 0.000000 0.000000 0.000000
								}
							}
						}
					}
					JOINT LeftShoulder
					{
						OFFSET 6.292450 5.785301 -0.669000
						CHANNELS 3 Xrotation Yrotation Zrotation
						JOINT LeftShoulder_split
						{
							OFFSET 6.292450 5.785301 -0.669000
							CHANNELS 3 Xrotation Yrotation Zrotation
							JOINT LeftArm
							{
								OFFSET 13.907140 -6.093903 1.965100
								CHANNELS 3 Xrotation Yrotation Zrotation
								JOINT LeftForeArm
								{
									OFFSET 34.140198 0.000000 0.000000
									CHANNELS 3 Xrotation Yrotation Zrotation
									JOINT LeftHand
									{
										OFFSET 40.960209 0.000000 0.000000
										CHANNELS 3 Xrotation Yrotation Zrotation
										JOINT LeftHandThumb1
										{
											OFFSET 10.006996 -7.170425 9.573125
											CHANNELS 3 Xrotation Yrotation Zrotation
											JOINT LeftHandThumb2
											{
												OFFSET 1.835007 -1.059448 1.059443
												CHANNELS 3 Xrotation Yrotation Zrotation
												JOINT LeftHandThumb3
												{
													OFFSET 2.112267 -1.219513 1.219518
													CHANNELS 3 Xrotation Yrotation Zrotation
													JOINT LeftHandThumb4
													{
														OFFSET 4.843811 -2.796570 2.796576
														CHANNELS 3 Xrotation Yrotation Zrotation
														End Site
														{
															OFFSET 0.000000 0.000000 0.000000
														}
													}
												}
											}
										}
										JOINT LeftHandIndex1
										{
											OFFSET 18.389847 -0.922348 4.596882
											CHANNELS 3 Xrotation Yrotation Zrotation
											JOINT LeftHandIndex2
											{
												OFFSET 4.711273 0.000000 0.000000
												CHANNELS 3 Xrotation Yrotation Zrotation
												JOINT LeftHandIndex3
												{
													OFFSET 2.886131 0.000000 0.000000
													CHANNELS 3 Xrotation Yrotation Zrotation
													JOINT LeftHandIndex4
													{
														OFFSET 6.145912 0.000000 0.000000
														CHANNELS 3 Xrotation Yrotation Zrotation
														End Site
														{
															OFFSET 0.000000 0.000000 0.000000
														}
													}
												}
											}
										}
										JOINT LeftHandMiddle1
										{
											OFFSET 18.013008 0.000000 0.000000
											CHANNELS 3 Xrotation Yrotation Zrotation
											JOINT LeftHandMiddle2
											{
												OFFSET 4.946693 0.000000 0.000000
												CHANNELS 3 Xrotation Yrotation Zrotation
												JOINT LeftHandMiddle3
												{
													OFFSET 3.342232 0.000000 0.000000
													CHANNELS 3 Xrotation Yrotation Zrotation
													JOINT LeftHandMiddle4
													{
														OFFSET 4.461754 0.000000 0.000000
														CHANNELS 3 Xrotation Yrotation Zrotation
														End Site
														{
															OFFSET 0.000000 0.000000 0.000000
														}
													}
												}
											}
										}
										JOINT LeftHandRing1
										{
											OFFSET 15.849892 -0.102921 -4.126150
											CHANNELS 3 Xrotation Yrotation Zrotation
											JOINT LeftHandRing2
											{
												OFFSET 3.527054 0.000000 0.000000
												CHANNELS 3 Xrotation Yrotation Zrotation
												JOINT LeftHandRing3
												{
													OFFSET 2.961098 0.000000 0.000000
													CHANNELS 3 Xrotation Yrotation Zrotation
													JOINT LeftHandRing4
													{
														OFFSET 4.927200 0.000000 0.000000
														CHANNELS 3 Xrotation Yrotation Zrotation
														End Site
														{
															OFFSET 0.000000 0.000000 0.000000
														}
													}
												}
											}
										}
										JOINT LeftHandPinky1
										{
											OFFSET 12.791824 -0.832031 -6.799156
											CHANNELS 3 Xrotation Yrotation Zrotation
											JOINT LeftHandPinky2
											{
												OFFSET 3.327133 0.000000 0.000000
												CHANNELS 3 Xrotation Yrotation Zrotation
												JOINT LeftHandPinky3
												{
													OFFSET 3.014900 0.000000 0.000000
													CHANNELS 3 Xrotation Yrotation Zrotation
													JOINT LeftHandPinky4
													{
														OFFSET 5.847786 0.000000 0.000000
														CHANNELS 3 Xrotation Yrotation Zrotation
														End Site
														{
															OFFSET 0.000000 0.000000 0.000000
														}
													}
												}
											}
										}
									}
								}
							}
						}
					}
					JOINT RightShoulder
					{
						OFFSET -6.292450 5.785301 -0.669000
						CHANNELS 3 Xrotation Yrotation Zrotation
						JOINT RightShoulder_split
						{
							OFFSET -6.292450 5.785301 -0.669000
							CHANNELS 3 Xrotation Yrotation Zrotation
							JOINT RightArm
							{
								OFFSET -13.907140 -6.093903 1.965100
								CHANNELS 3 Xrotation Yrotation Zrotation
								JOINT RightForeArm
								{
									OFFSET -34.140198 0.000000 0.000000
									CHANNELS 3 Xrotation Yrotation Zrotation
									JOINT RightHand
									{
										OFFSET -40.960209 0.000000 0.000000
										CHANNELS 3 Xrotation Yrotation Zrotation
										JOINT RightHandThumb1
										{
											OFFSET -10.007050 -7.170456 9.573117
											CHANNELS 3 Xrotation Yrotation Zrotation
											JOINT RightHandThumb2
											{
												OFFSET -1.835007 -1.059448 1.059443
												CHANNELS 3 Xrotation Yrotation Zrotation
												JOINT RightHandThumb3
												{
													OFFSET -2.112267 -1.219513 1.219518
													CHANNELS 3 Xrotation Yrotation Zrotation
													JOINT RightHandThumb4
													{
														OFFSET -4.843834 -2.796585 2.796590
														CHANNELS 3 Xrotation Yrotation Zrotation
														End Site
														{
															OFFSET 0.000000 0.000000 0.000000
														}
													}
												}
											}
										}
										JOINT RightHandIndex1
										{
											OFFSET -18.389870 -0.922424 4.596786
											CHANNELS 3 Xrotation Yrotation Zrotation
											JOINT RightHandIndex2
											{
												OFFSET -4.711273 0.000000 0.000000
												CHANNELS 3 Xrotation Yrotation Zrotation
												JOINT RightHandIndex3
												{
													OFFSET -2.886131 0.000000 0.000000
													CHANNELS 3 Xrotation Yrotation Zrotation
													JOINT RightHandIndex4
													{
														OFFSET -6.145920 0.000000 0.000000
														CHANNELS 3 Xrotation Yrotation Zrotation
														End Site
														{
															OFFSET 0.000000 0.000000 0.000000
														}
													}
												}
											}
										}
										JOINT RightHandMiddle1
										{
											OFFSET -18.013008 0.000000 0.000000
											CHANNELS 3 Xrotation Yrotation Zrotation
											JOINT RightHandMiddle2
											{
												OFFSET -4.946693 0.000000 0.000000
												CHANNELS 3 Xrotation Yrotation Zrotation
												JOINT RightHandMiddle3
												{
													OFFSET -3.342232 0.000000 0.000000
													CHANNELS 3 Xrotation Yrotation Zrotation
													JOINT RightHandMiddle4
													{
														OFFSET -4.461754 0.000000 0.000000
														CHANNELS 3 Xrotation Yrotation Zrotation
														End Site
														{
															OFFSET 0.000000 0.000000 0.000000
														}
													}
												}
											}
										}
										JOINT RightHandRing1
										{
											OFFSET -15.849876 -0.102936 -4.126237
											CHANNELS 3 Xrotation Yrotation Zrotation
											JOINT RightHandRing2
											{
												OFFSET -3.527054 0.000000 0.000000
												CHANNELS 3 Xrotation Yrotation Zrotation
												JOINT RightHandRing3
												{
													OFFSET -2.961098 0.000000 0.000000
													CHANNELS 3 Xrotation Yrotation Zrotation
													JOINT RightHandRing4
													{
														OFFSET -4.927200 0.000000 0.000000
														CHANNELS 3 Xrotation Yrotation Zrotation
														End Site
														{
															OFFSET 0.000000 0.000000 0.000000
														}
													}
												}
											}
										}
										JOINT RightHandPinky1
										{
											OFFSET -12.791786 -0.832077 -6.799222
											CHANNELS 3 Xrotation Yrotation Zrotation
											JOINT RightHandPinky2
											{
												OFFSET -3.327133 0.000000 0.000000
												CHANNELS 3 Xrotation Yrotation Zrotation
												JOINT RightHandPinky3
												{
													OFFSET -3.014900 0.000000 0.000000
													CHANNELS 3 Xrotation Yrotation Zrotation
													JOINT RightHandPinky4
													{
														OFFSET -5.847786 0.000000 0.000000
														CHANNELS 3 Xrotation Yrotation Zrotation
														End Site
														{
															OFFSET 0.000000 0.000000 0.000000
														}
													}
												}
											}
										}
									}
								}
							}
						}
					}
				}
			}
		}
	}
	JOINT LeftUpLeg
	{
		OFFSET 13.026900 -6.336304 -1.092800
		CHANNELS 3 Xrotation Yrotation Zrotation
		JOINT LeftLeg
		{
			OFFSET 0.524474 -46.096886 9.782700
			CHANNELS 3 Xrotation Yrotation Zrotation
			JOINT LeftFoot
			{
				OFFSET -0.524474 -53.427422 -12.948200
				CHANNELS 3 Xrotation Yrotation Zrotation
				JOINT LeftToeBase
				{
					OFFSET 0.192200 -14.009700 16.364100
					CHANNELS 3 Xrotation Yrotation Zrotation
					JOINT LeftToe_End
					{
						OFFSET -1.784700 -0.561700 9.474800
						CHANNELS 3 Xrotation Yrotation Zrotation
						End Site
						{
							OFFSET 0.000000 0.000000 0.000000
						}
					}
				}
			}
		}
	}
	JOINT RightUpLeg
	{
		OFFSET -12.883000 -6.336304 -1.092800
		CHANNELS 3 Xrotation Yrotation Zrotation
		JOINT RightLeg
		{
			OFFSET -0.524587 -46.096825 9.782800
			CHANNELS 3 Xrotation Yrotation Zrotation
			JOINT RightFoot
			{
				OFFSET 0.524587 -53.427383 -12.948300
				CHANNELS 3 Xrotation Yrotation Zrotation
				JOINT RightToeBase
				{
					OFFSET -0.192200 -14.009700 16.364100
					CHANNELS 3 Xrotation Yrotation Zrotation
					JOINT RightToe_End
					{
						OFFSET 1.784700 -0.561700 9.474800
						CHANNELS 3 Xrotation Yrotation Zrotation
						End Site
						{
							OFFSET 0.000000 0.000000 0.000000
						}
					}
				}
			}
		}
	}
}
MOTION
Frames: 5
Frame Time: 0.016667
-1.111155 101.148705 0.434564 3.032228 -58.328470 6.707834 11.191922 0.157658 -2.923519 8.434583 0.027681 -5.592322 0.000000 0.000000 0.000000 8.457040 0.027894 -5.591861 -21.556287 25.063284 12.062620 -0.293598 25.465688 -3.208709 0.000000 0.000000 -0.000000 -6.221646 -11.503819 -4.023770 0.000000 0.000000 0.000000 -23.061623 9.569254 -36.639822 0.046345 -43.170945 -0.011004 22.743649 -5.685003 15.979057 -1.064215 -7.954937 8.490075 2.373383 19.986160 -2.038308 0.808201 1.237766 2.631729 0.000000 -0.000000 0.000002 13.340865 -1.006681 10.682275 -0.167570 0.303410 -31.105641 -0.143374 0.303623 -32.256245 0.000000 -0.000001 -0.000000 8.495454 -0.329579 -0.915304 0.231494 0.661229 -29.901865 0.444115 0.213454 -44.357014 0.000002 -0.000000 -0.000001 6.111734 3.150929 -16.210930 0.047092 0.322443 -30.125482 0.408811 0.818959 -42.140659 -0.000001 -0.000000 0.000001 -5.636023 7.709870 -13.878619 0.224354 0.276584 -46.588372 0.261285 0.249376 -46.286853 0.000000 -0.000001 -0.000003 -5.488235 10.658259 2.466466 0.000000 0.000000 0.000000 -41.473889 -26.755574 30.079036 24.955746 111.862912 -23.308806 -8.702465 12.423112 -9.801930 0.264997 10.061085 -10.888513 1.383781 -17.412867 3.016276 3.342385 -13.253748 -8.262762 0.000001 0.000001 0.000001 19.443585 11.174452 -13.340192 -0.118674 -0.322688 18.035611 -0.089899 -0.286613 23.256579 0.000001 -0.000001 -0.000001 4.320460 2.436940 -4.811747 0.349144 -0.461234 26.890345 0.467502 0.154053 39.044845 -0.000001 0.000002 0.000001 -7.005652 -10.695161 5.719819 0.111891 -0.089189 26.155868 0.451287 -0.473590 33.265063 -0.000001 -0.000001 0.000000 -19.433572 -20.238221 5.987847 0.223790 -0.085795 36.844595 0.260790 -0.047512 36.471697 0.000002 0.000002 -0.000001 -36.056855 9.366516 25.451291 41.733330 -7.555501 -9.726265 -7.259467 -2.461460 -9.583213 -0.327592 1.238396 0.837243 0.000000 0.000003 -0.000000 -33.212567 -7.748741 -26.039835 46.179469 2.592292 -7.371215 -16.830308 3.006020 21.138090 -0.322786 -0.997354 -0.837171 -0.000000 0.000002 -0.000000 
-1.487330 101.234047 0.476253 4.792532 -58.923680 8.893080 10.572793 0.108702 -3.247399 7.278658 0.995592 -6.029103 0.000000 0.000000 0.000000 7.868302 0.668169 -5.886732 -19.835341 24.498188 8.157675 -2.779489 23.606790 2.798136 -0.000000 -0.000000 -0.000000 -6.438883 -13.164589 -4.289232 0.000000 0.000000 0.000000 -20.844397 7.515345 -36.011349 -0.375299 -40.249041 -0.284908 20.711473 -9.083188 15.351151 -1.038629 -7.822548 8.542168 2.457022 20.247035 -1.940296 0.878731 1.498674 2.761554 0.000001 0.000000 0.000001 13.341818 -1.007629 10.381776 -0.167193 0.303671 -31.406228 -0.142192 0.303232 -32.556855 0.000002 0.000001 -0.000000 8.490665 -0.326619 -1.215855 0.233158 0.662212 -30.202461 0.445758 0.213975 -44.657614 -0.000000 -0.000000 0.000001 6.108696 3.154445 -16.511149 0.047239 0.324456 -30.426075 0.411749 0.818648 -42.441228 -0.000001 -0.000000 -0.000002 -5.637280 7.711644 -14.177652 0.225515 0.277506 -46.888979 0.262665 0.250131 -46.587498 0.000001 0.000001 0.000003 -5.541686 9.386668 2.275654 0.000000 0.000000 0.000000 -42.475522 -27.793997 27.164152 22.803357 114.466259 -20.890183 -4.795839 10.170875 -11.609666 0.377269 9.088743 -11.243420 1.701237 -18.294571 2.663718 3.474370 -14.181403 -8.671796 0.000000 -0.000001 -0.000001 19.445012 11.175365 -12.309041 -0.117722 -0.323589 19.070482 -0.086067 -0.286053 24.291429 -0.000000 -0.000002 -0.000003 4.313797 2.427131 -3.776346 0.354738 -0.465009 27.925140 0.473433 0.151415 40.079584 -0.000003 -0.000000 0.000000 -6.995282 -10.694689 6.754736 0.111825 -0.096129 27.190706 0.461575 -0.474440 34.299916 0.000002 0.000001 0.000001 -19.413715 -20.226890 7.025163 0.227301 -0.089615 37.879379 0.265210 -0.050672 37.506519 0.000000 0.000001 -0.000001 -36.014874 9.644318 24.829565 41.401841 -6.760418 -9.542080 -7.477257 -2.255305 -10.090205 -0.346647 1.238218 0.866909 -0.000000 -0.000002 -0.000000 -34.127505 -6.907215 -26.282308 46.285019 2.644993 -7.358048 -16.942969 3.101055 21.088634 -0.716209 -0.900174 -0.703393 0.000000 0.000000 0.000000 
-2.312560 101.524681 0.638757 6.533487 -60.131954 10.982356 9.971067 0.056883 -3.554435 5.412852 1.778464 -6.941529 0.000000 0.000000 0.000000 6.233830 0.975660 -6.719546 -17.015543 23.940354 3.257988 -3.784286 21.629758 8.240865 0.000000 0.000000 0.000001 -6.702464 -14.957880 -4.571851 0.000000 0.000000 0.000000 -18.021917 7.338812 -35.052551 -0.477873 -38.363308 -0.338809 19.213312 -11.154200 13.927284 -0.979509 -7.455871 8.678431 2.699621 20.954269 -1.668308 1.051489 2.224712 3.105775 -0.000001 -0.000000 0.000001 13.344384 -1.010299 9.557777 -0.166128 0.304221 -32.230461 -0.138967 0.306124 -33.381102 0.000003 0.000001 -0.000000 8.482586 -0.318403 -2.040061 0.237662 0.664824 -31.026694 0.450421 0.212322 -45.481844 -0.000000 -0.000000 0.000001 6.100511 3.163998 -17.334399 0.047633 0.330010 -31.250294 0.419857 0.820348 -43.265509 -0.000001 -0.000001 -0.000002 -5.619235 7.707109 -15.003456 0.228780 0.280022 -47.713185 0.266524 0.252135 -47.411710 0.000001 0.000001 0.000000 -5.596363 8.117630 2.079308 0.000000 0.000000 0.000000 -42.075355 -29.071126 25.529891 21.515745 116.635725 -19.361481 -0.202628 8.375942 -12.996902 0.500866 7.974828 -11.648258 2.059869 -19.306416 2.263672 3.617946 -15.244885 -9.140283 0.000001 0.000003 -0.000002 19.446611 11.176475 -11.126342 -0.116618 -0.324524 20.255874 -0.081675 -0.285359 25.476829 0.000000 0.000000 0.000001 4.304656 2.415559 -2.590502 0.361308 -0.469192 29.110539 0.480318 0.148516 41.264892 -0.000001 -0.000001 0.000000 -6.989934 -10.702556 7.938605 0.111962 -0.104128 28.376029 0.464996 -0.475118 35.485319 0.000002 0.000001 -0.000001 -19.401446 -20.220568 8.211980 0.231366 -0.093839 39.064796 0.270415 -0.054256 38.691867 0.000002 0.000001 -0.000001 -35.137041 9.961862 24.363835 40.815021 -5.603907 -9.213931 -8.018513 -1.775171 -11.010501 -0.366949 1.237935 0.841864 -0.000000 0.000001 -0.000000 -34.552855 -6.027086 -26.160729 46.034304 2.834333 -7.279091 -17.134044 3.367734 20.904644 -1.699991 -0.657346 -0.366460 0.000000 0.000001 -0.000000 
-3.517707 101.991875 0.866753 7.693399 -61.341792 12.376757 9.401685 0.008214 -3.845250 3.106747 1.642277 -8.093142 0.000000 0.000000 0.000000 4.027166 1.010946 -7.900990 -14.200322 23.558221 -1.824858 -3.513579 20.287866 10.479021 0.000000 -0.000001 -0.000000 -6.970877 -16.475490 -4.859278 0.000000 0.000000 0.000000 -16.573500 10.147411 -34.139481 -0.206040 -37.784671 -0.168372 18.782571 -9.426697 9.926435 -0.892377 -6.907679 8.881320 3.057554 22.012786 -1.265167 1.301776 3.311238 3.616892 0.000002 0.000000 0.000002 13.348087 -1.014341 8.326592 -0.164574 0.305122 -33.462019 -0.134131 0.310376 -34.612571 0.000001 -0.000001 0.000001 8.470790 -0.305808 -3.271500 0.244491 0.668673 -32.258277 0.457303 0.212209 -46.713351 -0.000001 -0.000001 0.000002 6.099449 3.178692 -18.565235 0.052108 0.338244 -32.481798 0.431910 0.825454 -44.497105 -0.000001 0.000001 0.000001 -5.597894 7.702245 -16.236948 0.233584 0.283731 -48.944746 0.272411 0.255055 -48.643234 -0.000002 0.000001 -0.000002 -5.673088 6.670763 1.984884 0.000000 0.000000 0.000000 -39.956521 -30.758510 25.815279 19.616155 120.069603 -17.091293 4.611836 6.349237 -13.813223 0.623022 6.825566 -12.064231 2.424497 -20.352714 1.854913 3.757502 -16.342899 -9.623871 -0.000003 -0.000000 0.000002 19.448241 11.177665 -9.904345 -0.115466 -0.325443 21.478836 -0.077162 -0.284805 26.699889 0.000000 0.000000 0.000000 4.293699 2.403184 -1.367010 0.368102 -0.473355 30.333522 0.487474 0.145678 42.487827 0.000001 0.000001 0.000001 -6.994990 -10.712241 9.159834 0.112254 -0.112081 29.599018 0.469056 -0.475594 36.708322 0.000000 0.000002 0.000001 -19.401349 -20.222653 9.433959 0.235628 -0.098213 40.287765 0.275795 -0.057748 39.914905 0.000003 -0.000002 0.000000 -33.616408 10.433369 24.096721 39.872063 -4.734056 -8.834180 -8.605863 -1.189933 -11.982418 -0.374495 1.237841 0.838022 -0.000000 0.000001 -0.000000 -34.040898 -5.306811 -25.754360 45.412483 2.729339 -7.155777 -17.488361 3.659156 20.796972 -2.979491 -0.341911 0.076909 0.000000 -0.000000 0.000000 
-5.221114 102.410706 0.985947 7.742450 -60.928832 12.878169 8.969597 -0.119499 -4.348860 0.891125 1.532509 -9.429975 0.000000 0.000000 0.000000 1.674381 0.804737 -9.252079 -11.960175 23.337933 -5.988321 -2.747562 19.559534 10.071111 0.000001 -0.000000 -0.000001 -6.911199 -16.614285 -3.923255 0.000000 0.000000 0.000000 -17.257275 10.437855 -33.348446 0.390007 -39.556962 0.206007 19.879747 -9.194155 7.123604 -0.783463 -6.202604 9.139279 3.499109 23.381348 -0.754148 1.600954 4.714351 4.261767 -0.000001 -0.000000 0.000002 13.352785 -1.019652 6.744609 -0.162511 0.306253 -35.044171 -0.127973 0.315759 -36.194829 -0.000002 0.000000 -0.000000 8.455921 -0.289021 -4.853618 0.249638 0.673333 -33.840500 0.466260 0.212895 -48.295585 0.000002 -0.000000 -0.000001 6.092493 3.197880 -20.146638 0.056684 0.348894 -34.063974 0.444133 0.829288 -46.079448 0.000001 0.000000 0.000002 -5.592803 7.705862 -17.819600 0.239976 0.287999 -50.526905 0.279996 0.258592 -50.225441 0.000000 -0.000000 -0.000003 -5.775046 5.551412 1.625786 0.000000 0.000000 0.000000 -38.882488 -33.575707 26.148175 18.170253 122.855282 -15.363819 7.025744 6.316784 -12.173590 0.705693 6.015564 -12.356199 2.682096 -21.103574 1.564656 3.851886 -17.129962 -9.970452 -0.000001 -0.000002 -0.000000 19.449367 11.178485 -9.027709 -0.114611 -0.326121 22.354854 -0.073981 -0.284524 27.575885 -0.000001 -0.000001 -0.000001 4.285551 2.394095 -0.490852 0.372844 -0.476246 31.209515 0.492693 0.143659 43.363747 0.000002 0.000001 0.000000 -6.999526 -10.719792 10.036048 0.112543 -0.117628 30.474969 0.471402 -0.475756 37.584311 0.000001 0.000003 0.000001 -19.405565 -20.226948 10.311522 0.238775 -0.101227 41.163754 0.279744 -0.060276 40.790846 -0.000000 0.000000 -0.000001 -32.262959 10.933717 23.943447 37.996083 -4.465094 -7.992669 -8.070134 -1.514469 -13.676219 -0.327590 1.238492 0.837238 -0.000000 0.000000 -0.000000 -35.010740 -3.675652 -25.235351 48.350957 3.679590 -6.491435 -14.533859 4.231105 19.478844 -5.125251 -0.012078 -0.987537 -0.000000 0.000001 0.000000 
